<svg width="14" height="86" viewBox="0 0 14 86" fill="none" xmlns="http://www.w3.org/2000/svg">
<path d="M12.5 0H1.5C0.65625 0 0 0.6875 0 1.5V12.5C0 13.3438 0.65625 14 1.5 14H12.5C13.3125 14 14 13.3438 14 12.5V1.5C14 0.6875 13.3125 0 12.5 0ZM12.5 12.5H1.5V1.5H12.5V12.5ZM11.375 4.96875C11.5 4.8125 11.5 4.59375 11.375 4.4375L10.6562 3.71875C10.5312 3.5625 10.2812 3.5625 10.125 3.71875L5.71875 8.09375L3.84375 6.21875C3.6875 6.0625 3.46875 6.0625 3.3125 6.21875L2.59375 6.90625C2.46875 7.0625 2.46875 7.3125 2.59375 7.4375L5.4375 10.3125C5.59375 10.4688 5.8125 10.4688 5.96875 10.3125L11.375 4.96875ZM12.5 36H1.5C0.65625 36 0 36.6875 0 37.5V48.5C0 49.3438 0.65625 50 1.5 50H12.5C13.3125 50 14 49.3438 14 48.5V37.5C14 36.6875 13.3125 36 12.5 36ZM12.5 48.5H1.5V37.5H12.5V48.5ZM11.375 40.9688C11.5 40.8125 11.5 40.5938 11.375 40.4375L10.6562 39.7188C10.5312 39.5625 10.2812 39.5625 10.125 39.7188L5.71875 44.0938L3.84375 42.2188C3.6875 42.0625 3.46875 42.0625 3.3125 42.2188L2.59375 42.9062C2.46875 43.0625 2.46875 43.3125 2.59375 43.4375L5.4375 46.3125C5.59375 46.4688 5.8125 46.4688 5.96875 46.3125L11.375 40.9688ZM12.5 72H1.5C0.65625 72 0 72.6875 0 73.5V84.5C0 85.3438 0.65625 86 1.5 86H12.5C13.3125 86 14 85.3438 14 84.5V73.5C14 72.6875 13.3125 72 12.5 72ZM12.5 84.5H1.5V73.5H12.5V84.5ZM11.375 76.9688C11.5 76.8125 11.5 76.5938 11.375 76.4375L10.6562 75.7188C10.5312 75.5625 10.2812 75.5625 10.125 75.7188L5.71875 80.0938L3.84375 78.2188C3.6875 78.0625 3.46875 78.0625 3.3125 78.2188L2.59375 78.9062C2.46875 79.0625 2.46875 79.3125 2.59375 79.4375L5.4375 82.3125C5.59375 82.4688 5.8125 82.4688 5.96875 82.3125L11.375 76.9688Z" fill="#9DA1B4"/>
</svg>
